<?xml version="1.0" encoding="iso-8859-1"?>
<!-- Generator: Adobe Illustrator 26.2.1, SVG Export Plug-In . SVG Version: 6.00 Build 0)  -->
<svg version="1.1" id="Layer_1" xmlns="http://www.w3.org/2000/svg" xmlns:xlink="http://www.w3.org/1999/xlink" x="0px" y="0px"
	 viewBox="0 0 471.059 127.027" style="enable-background:new 0 0 471.059 127.027;" xml:space="preserve">
<path stroke-width="10px" width="100%" stroke="#eeeeee" style="fill:#1B202B;" d="M463.506,23.465v77.86c0,10.123-8.207,18.33-18.33,18.33H116.793c-1.905,0-3.55-1.27-4.102-3.093
	c-1.324-4.37-5.38-7.547-10.184-7.547c-4.797,0-8.859,3.178-10.184,7.549c-0.552,1.822-2.197,3.091-4.102,3.091H23.726
	c-10.123,0-18.33-8.207-18.33-18.33v-77.86c0-10.13,8.21-18.34,18.33-18.34H88.22c1.904,0,3.549,1.269,4.102,3.091
	c1.325,4.371,5.387,7.549,10.184,7.549c4.804,0,8.861-3.178,10.184-7.547c0.552-1.823,2.197-3.093,4.102-3.093h328.384
	C455.296,5.125,463.506,13.335,463.506,23.465z"/>
</svg>
